<?xml version="1.0" standalone="no"?>
<!DOCTYPE svg PUBLIC "-//W3C//DTD SVG 20010904//EN"
 "http://www.w3.org/TR/2001/REC-SVG-20010904/DTD/svg10.dtd">
<svg version="1.0" xmlns="http://www.w3.org/2000/svg"
 width="526.000000pt" height="426.000000pt" viewBox="0 0 526.000000 426.000000"
 preserveAspectRatio="xMidYMid meet">

<g transform="translate(0.000000,426.000000) scale(0.100000,-0.100000)"
fill="#000000" stroke="none">
<path d="M2429 3921 c-53 -21 -131 -56 -173 -79 -43 -23 -79 -42 -81 -42 -2 0
-1 16 2 35 5 30 3 35 -14 35 -11 0 -30 -12 -44 -26 -54 -59 -99 -84 -152 -84
-31 0 -68 -8 -94 -21 -46 -22 -100 -80 -109 -116 -6 -22 -11 -23 -99 -23 l-93
0 -83 -74 c-46 -41 -130 -120 -186 -177 -85 -87 -105 -114 -124 -164 -19 -53
-37 -75 -163 -200 -199 -197 -228 -257 -281 -587 -14 -86 -25 -166 -25 -178 0
-11 20 -62 44 -113 69 -145 124 -334 110 -372 -4 -8 -15 -15 -26 -15 -19 0
-20 -5 -16 -72 3 -59 13 -93 50 -178 133 -302 159 -363 193 -455 29 -80 43
-104 65 -117 20 -12 32 -29 40 -60 42 -166 85 -236 169 -280 44 -23 66 -28
127 -28 79 0 123 -13 176 -53 41 -31 117 -57 167 -57 38 0 161 -58 299 -142
51 -30 68 -36 83 -28 17 10 19 7 19 -20 0 -25 3 -30 18 -26 9 3 81 10 158 17
139 11 307 2 368 -20 11 -5 49 -6 83 -3 54 4 70 0 129 -27 80 -38 111 -40 116
-8 3 19 15 25 82 41 l78 19 35 -36 c19 -21 38 -37 44 -37 5 0 9 15 9 34 0 45
22 66 71 66 37 0 39 2 39 30 0 20 11 43 33 67 19 21 45 51 58 67 13 16 42 42
63 58 l40 28 28 -27 c27 -25 28 -26 28 -6 0 12 -12 35 -26 52 -14 17 -24 38
-21 45 6 16 87 32 112 22 10 -4 15 1 15 15 0 23 35 39 85 39 36 0 65 28 65 63
0 11 31 58 69 106 38 47 89 118 113 156 75 115 196 370 183 383 -8 8 -59 -43
-112 -111 -33 -43 -49 -56 -63 -52 -13 4 -21 -2 -28 -22 -7 -19 -11 -22 -11
-10 -1 10 -4 17 -9 15 -4 -1 -104 -76 -222 -164 -221 -166 -469 -336 -506
-348 -13 -4 -30 0 -45 13 -24 19 -25 19 -48 0 -30 -25 -51 -24 -51 1 0 30 -66
29 -75 -1 -6 -19 -8 -20 -26 -3 -18 16 -19 16 -19 -9 0 -18 -4 -25 -13 -21 -8
3 -20 -2 -27 -11 -12 -14 -16 -12 -41 17 l-27 33 5 -29 c4 -20 2 -27 -6 -22
-7 4 -11 0 -11 -11 0 -11 -15 -33 -33 -51 -29 -28 -43 -33 -112 -42 -44 -5
-102 -15 -130 -21 -40 -9 -62 -8 -110 4 -81 21 -228 44 -354 57 -57 5 -130 17
-164 26 -56 14 -197 78 -197 89 0 3 9 14 20 25 30 30 24 41 -15 24 -52 -22
-66 -18 -120 34 -27 26 -115 108 -195 182 -171 159 -219 207 -322 318 -78 85
-78 85 -178 318 -14 32 -23 41 -41 40 -30 -1 -52 39 -38 67 7 11 17 16 26 13
17 -7 18 -17 -8 186 -13 95 -12 97 14 165 21 55 31 114 52 306 29 270 49 357
105 475 58 122 132 223 250 342 192 195 240 233 422 341 328 195 441 234 706
246 129 5 144 8 158 27 15 22 20 121 5 112 -12 -8 -47 8 -90 39 -19 14 -43 25
-55 24 -12 0 -64 -17 -117 -38z m-1451 -2428 c6 -20 10 -39 8 -41 -8 -7 -47
58 -41 68 11 19 22 10 33 -27z m70 -29 c18 -37 31 -69 28 -72 -10 -10 -46 31
-46 52 0 12 -7 34 -15 50 -17 33 -18 36 -7 36 4 0 22 -30 40 -66z"/>
<path d="M3053 3818 c-16 -20 -26 -23 -84 -20 -54 2 -70 -1 -92 -18 -86 -68
31 -184 211 -210 58 -8 88 -19 150 -57 110 -67 234 -150 417 -282 88 -63 172
-119 188 -125 26 -10 34 -8 98 18 13 6 17 -3 22 -51 12 -107 63 -214 121 -254
65 -44 91 -123 67 -205 -7 -26 -3 -40 27 -95 20 -35 60 -88 89 -117 35 -36 53
-62 53 -78 0 -30 24 -41 47 -23 15 12 16 12 10 -4 -10 -26 -21 -243 -13 -235
4 3 12 42 17 85 9 72 38 211 54 258 5 14 -3 9 -26 -15 l-34 -34 -6 109 c-3 61
-14 176 -24 257 l-18 148 -189 302 c-244 393 -308 461 -533 569 -159 76 -252
99 -405 99 -121 0 -130 -1 -147 -22z"/>
<path d="M2527 2626 c-3 -8 -16 -16 -29 -19 l-23 -4 23 -2 c16 -1 22 -7 22
-25 0 -32 35 -57 64 -47 11 4 25 22 30 39 6 19 18 33 30 35 20 4 20 4 0 6 -12
0 -27 8 -34 16 -16 19 -76 20 -83 1z"/>
<path d="M2727 2633 c-3 -4 -8 -62 -13 -128 l-7 -120 -16 53 c-9 29 -23 57
-31 62 -19 12 -170 13 -188 1 -19 -12 -66 -201 -53 -214 20 -20 38 4 57 79
l19 78 5 -224 c5 -217 6 -225 25 -225 19 0 20 8 23 123 2 115 4 122 23 122 20
0 20 -5 19 -112 -1 -62 -1 -118 -1 -124 1 -8 25 -11 74 -10 l72 1 3 47 c3 39
0 47 -17 53 -19 6 -20 12 -16 58 10 97 34 481 31 485 -2 2 -6 0 -9 -5z m-38
-347 c6 -8 8 -45 4 -99 -5 -74 -9 -87 -24 -87 -10 0 -20 -8 -22 -17 -3 -10 -5
63 -5 162 l0 180 18 -63 c10 -35 23 -69 29 -76z"/>
<path d="M3330 1770 c0 -136 2 -160 15 -160 11 0 15 11 15 40 0 22 2 40 5 40
3 0 31 -18 61 -40 48 -36 74 -44 74 -22 0 4 -29 27 -65 52 -36 25 -65 48 -65
52 0 3 29 23 65 43 36 20 65 43 65 50 0 21 -4 20 -71 -20 -33 -19 -62 -35 -65
-35 -2 0 -4 36 -4 80 0 64 -3 80 -15 80 -13 0 -15 -24 -15 -160z"/>
<path d="M1467 1905 c-15 -11 -16 -15 -4 -22 20 -11 29 -103 11 -110 -18 -7
-18 -33 -1 -33 10 0 14 -16 13 -60 -1 -58 16 -90 22 -40 1 14 5 44 8 68 l5 42
55 0 c30 0 54 5 54 10 0 9 -18 12 -82 14 -27 1 -36 18 -37 69 l-1 37 75 0 c81
0 102 16 33 24 -118 14 -134 14 -151 1z"/>
<path d="M1970 1803 c0 -15 3 -65 7 -111 8 -102 26 -105 34 -4 6 78 27 115 63
110 29 -4 34 -44 7 -53 -26 -8 -28 -25 -3 -25 46 0 59 69 18 95 -28 18 -72 6
-83 -22 -6 -15 -8 -14 -13 6 -8 36 -30 39 -30 4z"/>
<path d="M2355 1808 c-24 -19 -27 -19 -44 -4 -26 23 -68 20 -82 -6 l-12 -22
-8 22 c-17 44 -24 20 -21 -70 3 -102 6 -118 22 -118 6 0 10 25 11 58 0 83 18
127 49 127 31 0 49 -44 49 -128 1 -42 4 -58 14 -55 7 3 14 33 17 84 6 87 12
104 40 104 29 0 40 -31 40 -114 0 -61 3 -76 15 -76 12 0 15 15 15 78 0 42 -6
88 -13 101 -18 36 -60 44 -92 19z"/>
<path d="M2530 1795 c0 -60 21 -135 46 -163 l24 -27 20 24 c11 13 23 41 26 63
7 44 16 40 33 -13 13 -41 44 -74 61 -64 20 12 41 80 47 149 5 56 4 68 -8 64
-9 -3 -16 -27 -21 -64 -8 -69 -24 -118 -37 -109 -5 3 -19 35 -31 71 -30 88
-40 83 -70 -33 -6 -24 -14 -43 -19 -43 -13 0 -29 43 -36 96 -4 27 -9 57 -12
67 -8 30 -23 19 -23 -18z"/>
<path d="M2890 1808 c-63 -43 -67 -142 -7 -178 65 -40 158 -12 172 50 17 76
-19 134 -90 145 -32 5 -47 2 -75 -17z m119 -34 c54 -69 -7 -161 -88 -133 -52
18 -65 96 -24 142 26 28 87 23 112 -9z"/>
<path d="M3114 1724 c4 -60 10 -111 12 -113 11 -11 19 16 25 80 7 76 28 112
63 107 30 -4 35 -48 7 -55 -26 -7 -28 -23 -3 -23 45 0 59 67 20 94 -31 22 -45
20 -73 -8 -23 -23 -24 -24 -27 -3 -2 11 -9 23 -17 25 -12 4 -13 -13 -7 -104z"/>
<path d="M3572 1814 c-17 -12 -22 -24 -20 -47 3 -28 10 -35 55 -56 58 -27 69
-43 47 -66 -22 -21 -38 -19 -72 10 -34 29 -42 31 -42 11 0 -23 50 -56 84 -56
51 0 72 25 67 78 0 7 -26 24 -57 38 -46 20 -55 28 -52 47 2 17 11 23 35 25 27
3 35 -1 45 -22 14 -33 28 -33 28 -2 0 48 -72 72 -118 40z"/>
<path d="M1751 1806 c-33 -18 -50 -53 -51 -104 0 -59 32 -92 93 -92 23 0 48 5
54 11 8 8 17 7 31 -2 28 -18 40 -4 17 21 -15 17 -17 31 -12 95 4 61 3 75 -9
75 -8 0 -14 -5 -14 -11 0 -5 -10 -3 -22 5 -27 19 -55 20 -87 2z m89 -35 c5
-11 10 -39 10 -62 0 -72 -51 -102 -98 -59 -29 27 -30 92 -2 120 26 26 76 26
90 1z"/>
<path d="M1452 1515 c1 -21 7 -35 15 -35 8 0 13 13 13 35 0 25 -4 35 -15 35
-12 0 -15 -9 -13 -35z"/>
<path d="M2170 1515 c0 -35 19 -51 21 -17 0 9 2 25 4 35 2 9 -3 17 -11 17 -9
0 -14 -12 -14 -35z"/>
<path d="M2689 1529 c-9 -17 -8 -24 4 -36 13 -13 15 -11 19 21 4 40 -5 47 -23
15z"/>
<path d="M2840 1515 c0 -19 5 -35 10 -35 6 0 10 16 10 35 0 19 -4 35 -10 35
-5 0 -10 -16 -10 -35z"/>
<path d="M3340 1515 c0 -19 5 -35 10 -35 6 0 10 16 10 35 0 19 -4 35 -10 35
-5 0 -10 -16 -10 -35z"/>
<path d="M2880 1510 c0 -16 5 -30 10 -30 6 0 10 14 10 30 0 17 -4 30 -10 30
-5 0 -10 -13 -10 -30z"/>
<path d="M3090 1510 c0 -16 5 -30 10 -30 6 0 10 14 10 30 0 17 -4 30 -10 30
-5 0 -10 -13 -10 -30z"/>
<path d="M3470 1516 c0 -14 5 -28 10 -31 6 -4 10 7 10 24 0 17 -4 31 -10 31
-5 0 -10 -11 -10 -24z"/>
<path d="M1510 1505 c0 -14 4 -25 9 -25 5 0 11 11 13 25 4 17 1 25 -8 25 -8 0
-14 -11 -14 -25z"/>
<path d="M1550 1505 c0 -14 5 -25 10 -25 6 0 10 11 10 25 0 14 -4 25 -10 25
-5 0 -10 -11 -10 -25z"/>
<path d="M1590 1506 c0 -14 5 -26 10 -26 6 0 10 9 10 19 0 11 -4 23 -10 26 -6
4 -10 -5 -10 -19z"/>
<path d="M1630 1495 c0 -19 5 -35 10 -35 6 0 10 16 10 35 0 19 -4 35 -10 35
-5 0 -10 -16 -10 -35z"/>
<path d="M1670 1505 c0 -15 4 -24 10 -20 6 3 10 12 10 20 0 8 -4 17 -10 20 -6
4 -10 -5 -10 -20z"/>
<path d="M1703 1514 c-3 -8 -1 -20 6 -27 8 -8 11 -4 11 16 0 30 -7 35 -17 11z"/>
<path d="M1770 1518 c0 -22 17 -41 24 -30 4 6 14 8 23 5 13 -5 15 -2 10 11 -4
10 -7 20 -7 23 0 3 -7 0 -15 -7 -10 -9 -15 -9 -15 -1 0 6 -4 11 -10 11 -5 0
-10 -6 -10 -12z"/>
<path d="M1853 1514 c-3 -8 -1 -20 6 -27 8 -8 11 -4 11 16 0 30 -7 35 -17 11z"/>
<path d="M1891 1514 c0 -11 3 -14 6 -6 3 7 2 16 -1 19 -3 4 -6 -2 -5 -13z"/>
<path d="M1920 1505 c0 -14 5 -25 10 -25 6 0 10 11 10 25 0 14 -4 25 -10 25
-5 0 -10 -11 -10 -25z"/>
<path d="M1970 1505 c0 -14 5 -25 10 -25 6 0 10 11 10 25 0 14 -4 25 -10 25
-5 0 -10 -11 -10 -25z"/>
<path d="M2010 1505 c0 -14 5 -25 10 -25 6 0 10 11 10 25 0 14 -4 25 -10 25
-5 0 -10 -11 -10 -25z"/>
<path d="M2048 1505 c2 -14 8 -25 13 -25 10 0 11 12 3 34 -10 25 -22 19 -16
-9z"/>
<path d="M2086 1522 c-12 -19 2 -47 25 -50 23 -3 23 -3 5 11 -12 9 -17 20 -13
31 6 16 -7 23 -17 8z"/>
<path d="M2260 1506 c0 -14 5 -26 10 -26 6 0 10 9 10 19 0 11 -4 23 -10 26 -6
4 -10 -5 -10 -19z"/>
<path d="M2300 1505 c0 -14 5 -25 10 -25 6 0 10 11 10 25 0 14 -4 25 -10 25
-5 0 -10 -11 -10 -25z"/>
<path d="M2350 1505 c0 -14 5 -25 10 -25 6 0 10 11 10 25 0 14 -4 25 -10 25
-5 0 -10 -11 -10 -25z"/>
<path d="M2387 1505 c3 -14 10 -25 15 -25 13 0 6 43 -8 47 -7 2 -10 -6 -7 -22z"/>
<path d="M2420 1505 c0 -14 5 -25 10 -25 6 0 10 11 10 25 0 14 -4 25 -10 25
-5 0 -10 -11 -10 -25z"/>
<path d="M2467 1523 c-11 -10 -8 -43 3 -43 6 0 10 11 10 25 0 26 -2 29 -13 18z"/>
<path d="M2530 1505 c0 -14 5 -25 10 -25 6 0 10 11 10 25 0 14 -4 25 -10 25
-5 0 -10 -11 -10 -25z"/>
<path d="M2576 1522 c-3 -5 3 -17 14 -27 17 -15 20 -16 20 -3 0 19 -26 42 -34
30z"/>
<path d="M2760 1505 c0 -14 5 -25 10 -25 6 0 10 11 10 25 0 14 -4 25 -10 25
-5 0 -10 -11 -10 -25z"/>
<path d="M2800 1505 c0 -14 5 -25 10 -25 6 0 10 11 10 25 0 14 -4 25 -10 25
-5 0 -10 -11 -10 -25z"/>
<path d="M2920 1505 c0 -14 5 -25 10 -25 6 0 10 11 10 25 0 14 -4 25 -10 25
-5 0 -10 -11 -10 -25z"/>
<path d="M2960 1523 c0 -14 19 -38 25 -32 8 8 -5 39 -16 39 -5 0 -9 -3 -9 -7z"/>
<path d="M3050 1506 c0 -14 5 -26 10 -26 6 0 10 9 10 19 0 11 -4 23 -10 26 -6
4 -10 -5 -10 -19z"/>
<path d="M3140 1505 c0 -14 5 -25 10 -25 6 0 10 11 10 25 0 14 -4 25 -10 25
-5 0 -10 -11 -10 -25z"/>
<path d="M3180 1505 c0 -14 5 -25 10 -25 6 0 10 11 10 25 0 14 -4 25 -10 25
-5 0 -10 -11 -10 -25z"/>
<path d="M3210 1505 c0 -14 5 -25 10 -25 6 0 10 11 10 25 0 14 -4 25 -10 25
-5 0 -10 -11 -10 -25z"/>
<path d="M3260 1530 c-1 -3 -4 -17 -6 -32 -2 -24 1 -28 24 -28 22 0 24 2 10
13 -9 6 -18 21 -21 32 -3 11 -6 18 -7 15z"/>
<path d="M3400 1505 c0 -14 5 -25 10 -25 6 0 10 11 10 25 0 14 -4 25 -10 25
-5 0 -10 -11 -10 -25z"/>
<path d="M3430 1505 c0 -14 5 -25 10 -25 6 0 10 11 10 25 0 14 -4 25 -10 25
-5 0 -10 -11 -10 -25z"/>
<path d="M3520 1505 c0 -14 5 -25 10 -25 6 0 10 11 10 25 0 14 -4 25 -10 25
-5 0 -10 -11 -10 -25z"/>
<path d="M3560 1505 c0 -14 5 -25 10 -25 6 0 10 11 10 25 0 14 -4 25 -10 25
-5 0 -10 -11 -10 -25z"/>
<path d="M3600 1505 c0 -14 5 -25 10 -25 6 0 10 11 10 25 0 14 -4 25 -10 25
-5 0 -10 -11 -10 -25z"/>
<path d="M3643 1514 c-3 -8 -1 -20 6 -27 6 -6 11 -7 12 -1 0 5 2 17 4 27 4 21
-13 23 -22 1z"/>
<path d="M3681 1514 c0 -11 3 -14 6 -6 3 7 2 16 -1 19 -3 4 -6 -2 -5 -13z"/>
<path d="M2225 1501 c-3 -5 -1 -12 5 -16 5 -3 10 1 10 9 0 18 -6 21 -15 7z"/>
<path d="M3015 1501 c-3 -5 -1 -12 5 -16 5 -3 10 1 10 9 0 18 -6 21 -15 7z"/>
</g>
</svg>
